<svg xmlns="http://www.w3.org/2000/svg" width="1024" height="1024" viewBox="0 0 1024 1024">
<g>
<path d="M 267.39 681.01 C260.12,683.79 248.25,684.56 242.32,682.62 C228.95,678.25 218.77,664.95 214.67,646.50 C208.81,620.14 210.19,577.35 217.91,545.50 C220.49,534.89 225.27,522.65 228.49,518.42 C230.83,515.36 230.99,514.62 230.05,511.25 C225.58,495.15 238.16,462.07 259.97,432.54 C274.48,412.90 295.78,392.37 315.04,379.47 C326.23,371.97 331.03,369.77 335.34,370.19 C341.38,370.78 339.79,373.39 328.93,380.67 C292.25,405.27 268.68,430.53 251.14,464.00 C243.29,478.99 239.00,491.76 239.00,500.17 C239.00,505.84 239.47,507.38 243.26,514.02 C249.74,525.38 258.27,536.01 273.98,552.27 C297.84,576.98 320.29,594.45 329.77,595.68 C332.91,596.09 334.54,595.49 340.00,591.94 C357.53,580.55 377.93,570.87 401.00,563.01 C407.88,560.67 413.84,558.55 414.25,558.31 C414.67,558.07 413.89,556.41 412.52,554.62 C406.04,546.13 400.31,530.00 389.39,489.50 C385.23,474.10 377.77,446.65 372.79,428.50 C361.21,386.20 359.95,380.86 359.70,373.00 L 359.50 366.50 L 362.66 366.19 C365.02,365.96 365.97,366.35 366.37,367.69 C366.67,368.69 368.74,376.25 370.97,384.50 C377.13,407.30 381.82,424.55 394.49,471.00 C413.73,541.54 416.39,548.59 425.37,552.94 C430.70,555.52 430.90,555.51 448.21,552.56 C473.30,548.29 483.19,547.51 512.50,547.55 C542.31,547.58 554.62,548.53 578.39,552.63 C586.58,554.04 594.65,554.92 596.31,554.59 C605.66,552.72 610.47,543.60 619.57,510.50 C623.20,497.30 629.76,473.45 634.15,457.50 C638.54,441.55 645.54,416.12 649.70,401.00 C660.40,362.07 660.50,354.75 650.50,343.32 C638.24,329.31 602.27,313.05 567.86,305.97 C548.42,301.97 528.99,300.58 503.00,301.33 C464.38,302.44 435.42,309.01 405.28,323.50 C389.29,331.20 384.49,334.33 375.88,342.73 C369.10,349.34 366.77,350.17 364.61,346.75 C362.78,343.84 367.42,336.55 374.95,330.49 C394.14,315.06 429.48,301.56 468.10,294.91 C483.65,292.24 524.87,291.13 542.25,292.92 C585.87,297.42 633.90,314.77 653.42,333.10 C660.52,339.76 665.75,347.92 666.78,353.96 L 667.51 358.24 L 676.49 361.16 C701.58,369.34 736.61,396.21 759.20,424.61 C783.83,455.57 799.94,494.19 795.25,511.07 C794.49,513.83 794.59,515.08 795.71,516.57 C803.21,526.56 810.60,553.97 813.10,581.00 C814.69,598.23 813.65,630.62 811.12,642.50 C807.24,660.76 801.26,671.99 792.24,677.97 C781.55,685.04 768.62,685.82 756.42,680.11 C747.41,675.89 737.74,665.95 723.72,646.47 C706.75,622.89 694.35,610.01 678.52,599.49 C626.04,564.62 551.01,549.91 469.50,558.51 C407.36,565.07 354.12,587.17 323.48,619.13 C316.08,626.85 310.30,634.20 294.59,655.88 C285.96,667.79 274.68,678.22 267.39,681.01 ZM 681.48 589.42 C687.52,593.04 693.20,596.00 694.11,596.00 C702.74,596.00 723.34,580.72 748.01,556.02 C767.32,536.68 782.04,517.41 785.54,506.87 C786.97,502.57 787.04,500.95 785.99,495.19 C783.41,480.93 772.66,458.84 758.64,439.00 C747.17,422.77 723.66,399.39 707.00,387.65 C693.98,378.49 677.08,369.49 670.92,368.45 L 667.34 367.84 L 665.63 376.67 C664.69,381.53 660.28,398.77 655.83,415.00 C651.38,431.23 646.73,448.33 645.49,453.00 C625.45,528.52 620.41,543.99 612.39,554.68 C609.50,558.54 609.45,559.00 611.93,559.00 C613.98,559.00 634.09,566.01 644.93,570.50 C654.57,574.49 669.17,582.05 681.48,589.42 ZM 245.99 674.13 C250.13,675.48 259.69,674.36 264.26,671.99 C271.20,668.39 278.04,661.80 286.00,651.07 C304.06,626.71 310.92,618.03 317.72,610.90 L 324.97 603.31 L 321.21 602.18 C306.38,597.74 260.50,555.46 241.93,529.13 C239.55,525.76 237.22,523.00 236.75,523.00 C235.38,523.00 230.31,534.75 227.58,544.26 C218.74,574.99 217.40,622.90 224.66,647.96 C228.97,662.84 235.32,670.63 245.99,674.13 ZM 766.09 673.90 C770.86,675.35 779.02,674.54 783.69,672.16 C788.05,669.94 794.01,663.82 796.49,659.03 C798.54,655.06 801.54,645.17 803.02,637.50 C804.84,628.11 805.47,592.56 804.04,580.18 C801.51,558.22 796.70,538.30 791.37,527.75 C790.05,525.14 788.58,523.00 788.12,523.00 C787.65,523.00 786.00,524.91 784.46,527.25 C768.24,551.85 717.12,599.62 703.89,602.52 C702.30,602.87 701.00,603.41 701.00,603.72 C701.00,604.03 704.38,607.81 708.50,612.13 C712.63,616.45 721.93,627.97 729.17,637.73 C736.41,647.49 744.62,657.91 747.42,660.88 C753.02,666.85 760.84,672.30 766.09,673.90 Z" fill="rgb(44,44,44)" data-index="0" style="opacity: 1;"></path>

</g>
</svg>